<svg width="24" height="24" viewBox="0 0 24 24" fill="none" xmlns="http://www.w3.org/2000/svg">
<rect width="24" height="24" rx="4" fill="#FF0140"/>
<path d="M6.99984 17.8334C6.74984 17.8334 6.58317 17.7501 6.4165 17.5834C6.08317 17.2501 6.08317 16.7501 6.4165 16.4167L16.4165 6.41675C16.7498 6.08341 17.2498 6.08341 17.5832 6.41675C17.9165 6.75008 17.9165 7.25008 17.5832 7.58341L7.58317 17.5834C7.4165 17.7501 7.24984 17.8334 6.99984 17.8334Z" fill="white"/>
<path d="M16.9998 17.8334C16.7498 17.8334 16.5832 17.7501 16.4165 17.5834L6.4165 7.58341C6.08317 7.25008 6.08317 6.75008 6.4165 6.41675C6.74984 6.08341 7.24984 6.08341 7.58317 6.41675L17.5832 16.4167C17.9165 16.7501 17.9165 17.2501 17.5832 17.5834C17.4165 17.7501 17.2498 17.8334 16.9998 17.8334Z" fill="white"/>
</svg>
