<svg width="26" height="26" viewBox="0 0 26 26" fill="none" xmlns="http://www.w3.org/2000/svg">
<path d="M12.8752 5.67627C15.2464 5.67627 17.1686 7.65502 17.1686 10.096C17.1686 12.5369 15.2464 14.5157 12.8752 14.5157C10.504 14.5157 8.58179 12.5369 8.58179 10.096C8.58179 7.65507 10.504 5.67627 12.8752 5.67627ZM12.8752 7.44415C11.492 7.44415 10.3497 8.62012 10.3497 10.096C10.3497 11.5718 11.492 12.7478 12.8752 12.7478C14.2584 12.7478 15.4008 11.5718 15.4008 10.096C15.4008 8.62012 14.2584 7.44415 12.8752 7.44415Z" fill="#325745"/>
<path d="M12.8752 0.624756C19.7098 0.624756 25.2504 6.1653 25.2504 12.9999C25.2504 17.6042 22.7359 21.6213 19.0052 23.7527C17.2605 24.7574 15.2432 25.3438 13.0912 25.3739L12.8752 25.3751C6.04054 25.3751 0.5 19.8346 0.5 12.9999C0.5 6.1653 6.04054 0.624756 12.8752 0.624756ZM11.719 17.5459C9.45647 17.5459 7.44706 18.9806 6.7083 21.1112L6.59407 21.4809C8.34814 22.8108 10.5088 23.5755 12.7718 23.6063L13.0505 23.6058C14.918 23.5755 16.6681 23.0627 18.1816 22.1865L19.1572 21.5398L19.0479 21.2045C18.3461 19.0536 16.359 17.5883 14.104 17.5468L11.719 17.5459ZM12.8752 2.39264C7.01693 2.39264 2.26788 7.14168 2.26788 12.9999C2.26788 15.8075 3.35869 18.3604 5.13966 20.2578C6.19779 17.5684 8.80049 15.778 11.719 15.778H14.006C16.9314 15.778 19.5394 17.5768 20.5929 20.2767C22.3845 18.3774 23.4825 15.8169 23.4825 12.9999C23.4825 7.14168 18.7334 2.39264 12.8752 2.39264Z" fill="#325745"/>
</svg>
