<svg width="21" height="21" viewBox="0 0 21 21" fill="none" xmlns="http://www.w3.org/2000/svg">
<path d="M7.99967 9.45833C6.73301 9.45833 5.70801 8.43333 5.70801 7.16667C5.70801 5.9 6.73301 4.875 7.99967 4.875C9.26634 4.875 10.2913 5.9 10.2913 7.16667C10.2913 8.43333 9.26634 9.45833 7.99967 9.45833ZM7.99967 6.125C7.42467 6.125 6.95801 6.59167 6.95801 7.16667C6.95801 7.74167 7.42467 8.20833 7.99967 8.20833C8.57467 8.20833 9.04134 7.74167 9.04134 7.16667C9.04134 6.59167 8.57467 6.125 7.99967 6.125Z" fill="#325745"/>
<path d="M12.9998 19.4584H7.99984C3.47484 19.4584 1.5415 17.5251 1.5415 13.0001V8.00008C1.5415 3.47508 3.47484 1.54175 7.99984 1.54175H11.3332C11.6748 1.54175 11.9582 1.82508 11.9582 2.16675C11.9582 2.50841 11.6748 2.79175 11.3332 2.79175H7.99984C4.15817 2.79175 2.7915 4.15841 2.7915 8.00008V13.0001C2.7915 16.8417 4.15817 18.2084 7.99984 18.2084H12.9998C16.8415 18.2084 18.2082 16.8417 18.2082 13.0001V8.83341C18.2082 8.49175 18.4915 8.20841 18.8332 8.20841C19.1748 8.20841 19.4582 8.49175 19.4582 8.83341V13.0001C19.4582 17.5251 17.5248 19.4584 12.9998 19.4584Z" fill="#325745"/>
<path d="M18.2083 5.29175H13.625C13.2833 5.29175 13 5.00841 13 4.66675C13 4.32508 13.2833 4.04175 13.625 4.04175H18.2083C18.55 4.04175 18.8333 4.32508 18.8333 4.66675C18.8333 5.00841 18.55 5.29175 18.2083 5.29175Z" fill="#325745"/>
<path d="M15.9165 7.58333C15.5748 7.58333 15.2915 7.3 15.2915 6.95833V2.375C15.2915 2.03333 15.5748 1.75 15.9165 1.75C16.2582 1.75 16.5415 2.03333 16.5415 2.375V6.95833C16.5415 7.3 16.2582 7.58333 15.9165 7.58333Z" fill="#325745"/>
<path d="M2.72443 16.9168C2.52443 16.9168 2.32443 16.8168 2.20776 16.6418C2.0161 16.3585 2.0911 15.9668 2.37443 15.7751L6.48276 13.0168C7.38276 12.4168 8.62443 12.4835 9.4411 13.1751L9.7161 13.4168C10.1328 13.7751 10.8411 13.7751 11.2494 13.4168L14.7161 10.4418C15.6078 9.68346 16.9911 9.68346 17.8828 10.4418L19.2411 11.6085C19.4994 11.8335 19.5328 12.2251 19.3078 12.4918C19.0828 12.7501 18.6911 12.7835 18.4244 12.5585L17.0661 11.3918C16.6494 11.0335 15.9411 11.0335 15.5328 11.3918L12.0661 14.3668C11.1828 15.1251 9.7911 15.1251 8.89943 14.3668L8.62443 14.1251C8.2411 13.8001 7.60777 13.7668 7.18277 14.0585L3.08276 16.8168C2.9661 16.8835 2.8411 16.9168 2.72443 16.9168Z" fill="#325745"/>
</svg>
