<svg width="32" height="32" viewBox="0 0 32 32" fill="none" xmlns="http://www.w3.org/2000/svg">
<path d="M18.8977 24H10.375C9.34071 24 8.5 23.178 8.5 22.1666V13.1666C8.5 12.1553 9.34071 11.3334 10.375 11.3334H10.7159C10.9981 11.3334 11.2272 11.5574 11.2272 11.8334C11.2272 12.1094 10.9981 12.3334 10.7159 12.3334H10.375C9.90526 12.3334 9.52273 12.7073 9.52273 13.1666V22.1666C9.52273 22.626 9.90526 23 10.375 23H18.8977C19.3675 23 19.75 22.626 19.75 22.1666V21.8334C19.75 21.5574 19.9791 21.3334 20.2614 21.3334C20.5437 21.3334 20.7728 21.5574 20.7728 21.8334V22.1666C20.7728 23.178 19.9321 24 18.8977 24Z" fill="#A8B3AD"/>
<path d="M21.6251 20H14.466C13.4316 20 12.5909 19.178 12.5909 18.1666V9.83337C12.5909 8.82202 13.4316 8 14.466 8H21.6251C22.6594 8 23.5 8.82202 23.5 9.83337V18.1666C23.5 19.178 22.6594 20 21.6251 20ZM14.466 9C13.9962 9 13.6137 9.37402 13.6137 9.83337V18.1666C13.6137 18.626 13.9962 19 14.466 19H21.6251C22.0949 19 22.4773 18.626 22.4773 18.1666V9.83337C22.4773 9.37402 22.0949 9 21.6251 9H14.466Z" fill="#A8B3AD"/>
</svg>
