<svg width="20" height="28" viewBox="0 0 20 28" fill="none" xmlns="http://www.w3.org/2000/svg">
<path d="M19.8333 6.85128V24.3665C19.8333 26.7928 18.6698 27.9943 16.3315 27.9943H4.3351C1.99681 27.9943 0.833313 26.7928 0.833313 24.3665V6.85128C0.833313 4.42502 1.99681 3.22345 4.3351 3.22345H4.48464C4.47512 3.31736 4.47065 3.41385 4.47065 3.51229V4.72542C4.47065 4.84839 4.47774 4.96832 4.49408 5.08358H4.42547C3.25067 5.08358 2.65198 5.73058 2.65198 6.87438V24.3434C2.65198 25.4988 3.25067 26.1342 4.42547 26.1342H16.2412C17.416 26.1342 18.0146 25.4988 18.0146 24.3434V6.87438C18.0146 5.73058 17.416 5.08358 16.2412 5.08358H16.1726C16.1889 4.96832 16.196 4.84839 16.196 4.72542V3.51229C16.196 3.41385 16.1915 3.31736 16.182 3.22345H16.3315C18.6698 3.22345 19.8333 4.42502 19.8333 6.85128Z" fill="#325745"/>
<path d="M6.84283 5.86922H13.8238C14.479 5.86922 14.8743 5.44174 14.8743 4.72542V3.51229C14.8743 2.79597 14.479 2.36849 13.8238 2.36849H12.7846C12.7055 1.06293 11.6437 0 10.3333 0C9.02298 0 7.96114 1.06293 7.88207 2.36849H6.84283C6.18766 2.36849 5.7923 2.79597 5.7923 3.51229V4.72542C5.7923 5.44174 6.18766 5.86922 6.84283 5.86922ZM10.3333 3.46608C9.79111 3.46608 9.35056 3.00393 9.35056 2.46091C9.35056 1.89479 9.79111 1.4442 10.3333 1.4442C10.8755 1.4442 11.3161 1.89479 11.3161 2.46091C11.3161 3.00393 10.8755 3.46608 10.3333 3.46608Z" fill="#325745"/>
<path d="M5.56637 21.0044C6.09728 21.0044 6.52653 20.5654 6.52653 20.0223C6.52653 19.4793 6.09728 19.0403 5.56637 19.0403C5.04675 19.0403 4.6062 19.4909 4.6062 20.0223C4.6062 20.5538 5.04675 21.0044 5.56637 21.0044ZM8.58242 20.7387H15.3601C15.7441 20.7387 16.0604 20.4152 16.0604 20.0223C16.0604 19.6295 15.7554 19.306 15.3601 19.306H8.58242C8.18706 19.306 7.87077 19.6295 7.87077 20.0223C7.87077 20.4152 8.19835 20.7387 8.58242 20.7387Z" fill="#325745"/>
<path d="M5.56637 16.6719C6.09728 16.6719 6.52653 16.2328 6.52653 15.6898C6.52653 15.1468 6.09728 14.7193 5.56637 14.7193C5.03545 14.7193 4.6062 15.1583 4.6062 15.6898C4.6062 16.2328 5.03545 16.6719 5.56637 16.6719ZM8.58242 16.4177H15.3601C15.7554 16.4177 16.0604 16.0942 16.0604 15.6898C16.0604 15.297 15.7554 14.985 15.3601 14.985H8.58242C8.18706 14.985 7.87077 15.297 7.87077 15.6898C7.87077 16.0942 8.18706 16.4177 8.58242 16.4177Z" fill="#325745"/>
<path d="M5.56637 12.5818C6.09728 12.5818 6.52653 12.1428 6.52653 11.5998C6.52653 11.0568 6.09728 10.6177 5.56637 10.6177C5.04675 10.6177 4.6062 11.0683 4.6062 11.5998C4.6062 12.1313 5.04675 12.5818 5.56637 12.5818ZM8.58242 12.3161H15.3601C15.7441 12.3161 16.0604 11.9926 16.0604 11.5998C16.0604 11.207 15.7441 10.8719 15.3601 10.8719H8.58242C8.19835 10.8719 7.87077 11.207 7.87077 11.5998C7.87077 11.9926 8.19835 12.3161 8.58242 12.3161Z" fill="#325745"/>
</svg>
