<svg width="20" height="20" viewBox="0 0 20 20" fill="none" xmlns="http://www.w3.org/2000/svg">
<path d="M11.326 9.29937C11.166 9.29937 11.006 9.23844 10.8842 9.11625C9.90947 8.14156 8.32353 8.14125 7.34853 9.11625C7.10478 9.36031 6.70854 9.36031 6.46479 9.11625C6.22072 8.87219 6.22072 8.47656 6.46479 8.2325C7.92697 6.77 10.306 6.77031 11.7679 8.2325C12.012 8.47656 12.012 8.87219 11.7679 9.11625C11.646 9.23844 11.4857 9.29937 11.326 9.29937Z" fill="#325745"/>
<path d="M10.8844 12.8645C9.9241 12.8645 8.96379 12.4989 8.23285 11.768C7.98879 11.5239 7.98879 11.1283 8.23285 10.8842C8.4766 10.6402 8.87285 10.6402 9.1166 10.8842C10.0913 11.8589 11.6772 11.8592 12.6522 10.8842C12.896 10.6402 13.2922 10.6402 13.536 10.8842C13.78 11.1283 13.78 11.5239 13.536 11.768C12.8047 12.4989 11.8444 12.8645 10.8844 12.8645Z" fill="#325745"/>
<path d="M13.0937 11.9509C12.9337 11.9509 12.7737 11.89 12.6518 11.7678C12.4077 11.5237 12.4077 11.1281 12.6518 10.884L16.143 7.39276C16.3868 7.1487 16.783 7.1487 17.0268 7.39276C17.2709 7.63683 17.2709 8.03245 17.0268 8.27651L13.5355 11.7678C13.4137 11.89 13.2537 11.9509 13.0937 11.9509Z" fill="#325745"/>
<path d="M7.83488 17.2095C7.67488 17.2095 7.51488 17.1486 7.39301 17.0264C7.14895 16.7824 7.14895 16.3867 7.39301 16.1427L9.34457 14.1911C9.58832 13.947 9.98457 13.947 10.2283 14.1911C10.4724 14.4352 10.4724 14.8308 10.2283 15.0749L8.27676 17.0264C8.15488 17.1486 7.99488 17.2095 7.83488 17.2095Z" fill="#325745"/>
<path d="M3.41545 12.7902C3.25545 12.7902 3.09545 12.7292 2.97357 12.6071C2.72951 12.363 2.72951 11.9674 2.97357 11.7233L6.46482 8.23236C6.70889 7.9883 7.10482 7.9883 7.34857 8.23236C7.59264 8.47643 7.59264 8.87205 7.34857 9.11611L3.85732 12.6071C3.73514 12.7289 3.57514 12.7902 3.41545 12.7902Z" fill="#325745"/>
<path d="M10.2138 5.99208C10.0538 5.99208 9.8941 5.93114 9.77191 5.80927C9.52785 5.5652 9.52785 5.16958 9.77191 4.9252L11.7235 2.97333C11.9675 2.72927 12.3632 2.72927 12.6075 2.97333C12.8516 3.21739 12.8516 3.61302 12.6075 3.85739L10.656 5.80927C10.5338 5.93083 10.3735 5.99208 10.2138 5.99208Z" fill="#325745"/>
<path d="M5.6252 18.1046C4.65863 18.1046 3.69207 17.7453 2.97363 17.0265C1.53613 15.589 1.53613 13.1606 2.97363 11.7231C3.21738 11.479 3.61363 11.479 3.85738 11.7231C4.10145 11.9671 4.10145 12.3628 3.85738 12.6068C2.89926 13.565 2.89926 15.1843 3.85738 16.1425C4.81551 17.1006 6.43488 17.1006 7.39301 16.1425C7.63676 15.8984 8.03301 15.8984 8.27676 16.1425C8.52082 16.3865 8.52082 16.7821 8.27676 17.0262C7.55832 17.7453 6.59176 18.1046 5.6252 18.1046Z" fill="#325745"/>
<path d="M16.5848 8.45964C16.4248 8.45964 16.2648 8.3987 16.1429 8.27651C15.8989 8.03245 15.8989 7.63683 16.1429 7.39276C17.1011 6.43464 17.1011 4.81526 16.1429 3.85714C15.1848 2.89901 13.5654 2.89901 12.6073 3.85714C12.3636 4.1012 11.9673 4.1012 11.7236 3.85714C11.4795 3.61308 11.4795 3.21745 11.7236 2.97339C13.1611 1.53589 15.5895 1.53589 17.027 2.97339C18.4645 4.41089 18.4645 6.83933 17.027 8.27683C16.9048 8.3987 16.7448 8.45964 16.5848 8.45964Z" fill="#325745"/>
</svg>
