<svg width="26.4" height="28" viewBox="0 0 16 17" fill="none" xmlns="http://www.w3.org/2000/svg">
<path d="M15.6756 4.42875C15.5769 2.78656 14.2056 1.5 12.5541 1.5H11.75V0.875C11.75 0.53 11.47 0.25 11.125 0.25C10.78 0.25 10.5 0.53 10.5 0.875V1.5H5.5V0.875C5.5 0.53 5.22 0.25 4.875 0.25C4.53 0.25 4.25 0.53 4.25 0.875V1.5H3.44594C1.79407 1.5 0.422818 2.78656 0.32438 4.42875C0.139068 7.5175 0.142505 10.6506 0.334693 13.7409C0.432193 15.3103 1.68938 16.5675 3.25875 16.665C4.83157 16.7628 6.41563 16.8116 7.99969 16.8116C9.58344 16.8116 11.1678 16.7628 12.7406 16.665C14.31 16.5675 15.5672 15.3103 15.6647 13.7409C15.8572 10.6522 15.8606 7.51938 15.6756 4.42875ZM14.4175 13.6634C14.3588 14.605 13.6047 15.3591 12.6634 15.4175C9.56907 15.6097 6.43094 15.6097 3.33657 15.4175C2.395 15.3588 1.64094 14.6047 1.58251 13.6634C1.43469 11.2875 1.40438 8.88656 1.48344 6.5H14.5169C14.5956 8.8875 14.5653 11.2884 14.4175 13.6634ZM4.875 4C5.22 4 5.5 3.72 5.5 3.375V2.75H10.5V3.375C10.5 3.72 10.78 4 11.125 4C11.47 4 11.75 3.72 11.75 3.375V2.75H12.5541C13.5456 2.75 14.3688 3.52031 14.4278 4.50344C14.4425 4.75156 14.4488 5.00125 14.4609 5.25H1.53907C1.55157 5.00125 1.55751 4.75156 1.57219 4.50344C1.63126 3.52031 2.45407 2.75 3.44594 2.75H4.25V3.375C4.25 3.72 4.53 4 4.875 4Z" fill="#C1E9D5"/>
<path d="M4.875 10.25C5.39277 10.25 5.8125 9.83027 5.8125 9.3125C5.8125 8.79473 5.39277 8.375 4.875 8.375C4.35723 8.375 3.9375 8.79473 3.9375 9.3125C3.9375 9.83027 4.35723 10.25 4.875 10.25Z" fill="#C1E9D5"/>
<path d="M8 10.25C8.51777 10.25 8.9375 9.83027 8.9375 9.3125C8.9375 8.79473 8.51777 8.375 8 8.375C7.48223 8.375 7.0625 8.79473 7.0625 9.3125C7.0625 9.83027 7.48223 10.25 8 10.25Z" fill="#C1E9D5"/>
<path d="M4.875 13.375C5.39277 13.375 5.8125 12.9553 5.8125 12.4375C5.8125 11.9197 5.39277 11.5 4.875 11.5C4.35723 11.5 3.9375 11.9197 3.9375 12.4375C3.9375 12.9553 4.35723 13.375 4.875 13.375Z" fill="#C1E9D5"/>
<path d="M11.125 10.25C11.6428 10.25 12.0625 9.83027 12.0625 9.3125C12.0625 8.79473 11.6428 8.375 11.125 8.375C10.6072 8.375 10.1875 8.79473 10.1875 9.3125C10.1875 9.83027 10.6072 10.25 11.125 10.25Z" fill="#C1E9D5"/>
<path d="M11.125 13.375C11.6428 13.375 12.0625 12.9553 12.0625 12.4375C12.0625 11.9197 11.6428 11.5 11.125 11.5C10.6072 11.5 10.1875 11.9197 10.1875 12.4375C10.1875 12.9553 10.6072 13.375 11.125 13.375Z" fill="#C1E9D5"/>
<path d="M8 13.375C8.51777 13.375 8.9375 12.9553 8.9375 12.4375C8.9375 11.9197 8.51777 11.5 8 11.5C7.48223 11.5 7.0625 11.9197 7.0625 12.4375C7.0625 12.9553 7.48223 13.375 8 13.375Z" fill="#C1E9D5"/>
</svg>
