<svg width="20" height="20" viewBox="0 0 20 20" fill="none" xmlns="http://www.w3.org/2000/svg">
<path d="M17.6756 5.42875C17.5769 3.78656 16.2056 2.5 14.5541 2.5H13.75V1.875C13.75 1.53 13.47 1.25 13.125 1.25C12.78 1.25 12.5 1.53 12.5 1.875V2.5H7.50001V1.875C7.50001 1.53 7.22001 1.25 6.87501 1.25C6.53001 1.25 6.25001 1.53 6.25001 1.875V2.5H5.44594C3.79407 2.5 2.42282 3.78656 2.32438 5.42875C2.13907 8.5175 2.14251 11.6506 2.33469 14.7409C2.43219 16.3103 3.68938 17.5675 5.25875 17.665C6.83157 17.7628 8.41563 17.8116 9.99969 17.8116C11.5834 17.8116 13.1678 17.7628 14.7406 17.665C16.31 17.5675 17.5672 16.3103 17.6647 14.7409C17.8572 11.6522 17.8606 8.51937 17.6756 5.42875ZM16.4175 14.6634C16.3588 15.605 15.6047 16.3591 14.6634 16.4175C11.5691 16.6097 8.43094 16.6097 5.33657 16.4175C4.39501 16.3587 3.64094 15.6047 3.58251 14.6634C3.43469 12.2875 3.40438 9.88656 3.48344 7.5H16.5169C16.5956 9.8875 16.5653 12.2884 16.4175 14.6634ZM6.87501 5C7.22001 5 7.50001 4.72 7.50001 4.375V3.75H12.5V4.375C12.5 4.72 12.78 5 13.125 5C13.47 5 13.75 4.72 13.75 4.375V3.75H14.5541C15.5456 3.75 16.3688 4.52031 16.4278 5.50344C16.4425 5.75156 16.4488 6.00125 16.4609 6.25H3.53907C3.55157 6.00125 3.55751 5.75156 3.57219 5.50344C3.63126 4.52031 4.45407 3.75 5.44594 3.75H6.25001V4.375C6.25001 4.72 6.53001 5 6.87501 5Z" fill="#325745"/>
<path d="M6.875 11.25C7.39277 11.25 7.8125 10.8303 7.8125 10.3125C7.8125 9.79473 7.39277 9.375 6.875 9.375C6.35723 9.375 5.9375 9.79473 5.9375 10.3125C5.9375 10.8303 6.35723 11.25 6.875 11.25Z" fill="#325745"/>
<path d="M10 11.25C10.5178 11.25 10.9375 10.8303 10.9375 10.3125C10.9375 9.79473 10.5178 9.375 10 9.375C9.48223 9.375 9.0625 9.79473 9.0625 10.3125C9.0625 10.8303 9.48223 11.25 10 11.25Z" fill="#325745"/>
<path d="M6.875 14.375C7.39277 14.375 7.8125 13.9553 7.8125 13.4375C7.8125 12.9197 7.39277 12.5 6.875 12.5C6.35723 12.5 5.9375 12.9197 5.9375 13.4375C5.9375 13.9553 6.35723 14.375 6.875 14.375Z" fill="#325745"/>
<path d="M13.125 11.25C13.6428 11.25 14.0625 10.8303 14.0625 10.3125C14.0625 9.79473 13.6428 9.375 13.125 9.375C12.6072 9.375 12.1875 9.79473 12.1875 10.3125C12.1875 10.8303 12.6072 11.25 13.125 11.25Z" fill="#325745"/>
<path d="M13.125 14.375C13.6428 14.375 14.0625 13.9553 14.0625 13.4375C14.0625 12.9197 13.6428 12.5 13.125 12.5C12.6072 12.5 12.1875 12.9197 12.1875 13.4375C12.1875 13.9553 12.6072 14.375 13.125 14.375Z" fill="#325745"/>
<path d="M10 14.375C10.5178 14.375 10.9375 13.9553 10.9375 13.4375C10.9375 12.9197 10.5178 12.5 10 12.5C9.48223 12.5 9.0625 12.9197 9.0625 13.4375C9.0625 13.9553 9.48223 14.375 10 14.375Z" fill="#325745"/>
</svg>
