<svg width="9" height="13" viewBox="0 0 9 13" fill="none" xmlns="http://www.w3.org/2000/svg">
<path d="M4.41969 12.1338C3.38914 12.1338 2.54816 11.9709 1.89677 11.6452C1.24538 11.3195 0.91969 10.899 0.91969 10.3838C0.91969 10.1504 0.990177 9.93412 1.13115 9.73481C1.27212 9.5355 1.469 9.36294 1.72177 9.2171L2.64052 10.0775C2.55302 10.1164 2.45823 10.1602 2.35615 10.2088C2.25407 10.2574 2.17386 10.3157 2.11552 10.3838C2.24191 10.5393 2.53358 10.6754 2.99052 10.7921C3.44747 10.9088 3.92386 10.9671 4.41969 10.9671C4.91552 10.9671 5.39434 10.9088 5.85615 10.7921C6.31796 10.6754 6.61205 10.5393 6.73844 10.3838C6.67039 10.306 6.58289 10.2428 6.47594 10.1942C6.369 10.1456 6.26691 10.1018 6.16969 10.0629L7.07386 9.18793C7.34608 9.34349 7.55511 9.52092 7.70094 9.72023C7.84677 9.91953 7.91969 10.1407 7.91969 10.3838C7.91969 10.899 7.594 11.3195 6.94261 11.6452C6.29122 11.9709 5.45025 12.1338 4.41969 12.1338ZM4.43427 8.92544C5.39677 8.21571 6.12108 7.50356 6.60719 6.78898C7.0933 6.07439 7.33636 5.35738 7.33636 4.63794C7.33636 3.64627 7.02039 2.89766 6.38844 2.3921C5.7565 1.88655 5.10025 1.63377 4.41969 1.63377C3.73914 1.63377 3.08289 1.88655 2.45094 2.3921C1.819 2.89766 1.50302 3.64627 1.50302 4.63794C1.50302 5.28932 1.74122 5.96745 2.21761 6.67231C2.694 7.37717 3.43289 8.12821 4.43427 8.92544ZM4.41969 10.3838C3.04886 9.37266 2.02559 8.39071 1.3499 7.43793C0.674204 6.48516 0.336357 5.55182 0.336357 4.63794C0.336357 3.94766 0.460315 3.34245 0.708232 2.82231C0.956149 2.30217 1.27455 1.8671 1.66344 1.5171C2.05233 1.1671 2.48983 0.904602 2.97594 0.729602C3.46205 0.554602 3.9433 0.467102 4.41969 0.467102C4.89608 0.467102 5.37733 0.554602 5.86344 0.729602C6.34955 0.904602 6.78705 1.1671 7.17594 1.5171C7.56483 1.8671 7.88323 2.30217 8.13115 2.82231C8.37907 3.34245 8.50302 3.94766 8.50302 4.63794C8.50302 5.55182 8.16518 6.48516 7.48948 7.43793C6.81379 8.39071 5.79052 9.37266 4.41969 10.3838ZM4.41969 5.7171C4.74052 5.7171 5.01518 5.60287 5.24365 5.37439C5.47212 5.14592 5.58636 4.87127 5.58636 4.55044C5.58636 4.2296 5.47212 3.95495 5.24365 3.72648C5.01518 3.498 4.74052 3.38377 4.41969 3.38377C4.09886 3.38377 3.8242 3.498 3.59573 3.72648C3.36726 3.95495 3.25302 4.2296 3.25302 4.55044C3.25302 4.87127 3.36726 5.14592 3.59573 5.37439C3.8242 5.60287 4.09886 5.7171 4.41969 5.7171Z" fill="#A5DFC2"/>
</svg>
