<svg width="20" height="20" viewBox="0 0 20 20" fill="none" xmlns="http://www.w3.org/2000/svg">
<path fill-rule="evenodd" clip-rule="evenodd" d="M10 1.04175C6.8975 1.04175 4.375 3.58675 4.375 6.72591C4.375 7.78925 4.84333 9.10841 5.525 10.4242C7.02583 13.3217 9.52583 16.2401 9.52583 16.2401C9.64417 16.3784 9.8175 16.4584 10 16.4584C10.1825 16.4584 10.3558 16.3784 10.4742 16.2401C10.4742 16.2401 12.9742 13.3217 14.475 10.4242C15.1567 9.10841 15.625 7.78925 15.625 6.72591C15.625 3.58675 13.1025 1.04175 10 1.04175ZM10 2.29175C12.4167 2.29175 14.375 4.28092 14.375 6.72591C14.375 7.94758 13.6 9.53925 12.705 11.0234C11.745 12.6151 10.6217 14.0767 10 14.8501C9.37833 14.0767 8.255 12.6151 7.295 11.0234C6.4 9.53925 5.625 7.94758 5.625 6.72591C5.625 4.28092 7.58333 2.29175 10 2.29175Z" fill="#93D9B6"/>
<path fill-rule="evenodd" clip-rule="evenodd" d="M10 4.375C8.735 4.375 7.70833 5.40167 7.70833 6.66667C7.70833 7.93167 8.735 8.95833 10 8.95833C11.265 8.95833 12.2917 7.93167 12.2917 6.66667C12.2917 5.40167 11.265 4.375 10 4.375ZM10 5.625C10.575 5.625 11.0417 6.09167 11.0417 6.66667C11.0417 7.24167 10.575 7.70833 10 7.70833C9.425 7.70833 8.95833 7.24167 8.95833 6.66667C8.95833 6.09167 9.425 5.625 10 5.625Z" fill="#93D9B6"/>
<path fill-rule="evenodd" clip-rule="evenodd" d="M13.9867 14.4809C14.6642 14.6842 15.2225 14.9359 15.6083 15.2309C15.8583 15.4209 16.0417 15.6067 16.0417 15.8334C16.0417 15.9667 15.9658 16.0875 15.8592 16.2084C15.6825 16.4075 15.42 16.5867 15.095 16.7534C13.9467 17.3409 12.09 17.7084 10 17.7084C7.91 17.7084 6.05333 17.3409 4.905 16.7534C4.58 16.5867 4.3175 16.4075 4.14083 16.2084C4.03417 16.0875 3.95833 15.9667 3.95833 15.8334C3.95833 15.6067 4.14167 15.4209 4.39167 15.2309C4.7775 14.9359 5.33583 14.6842 6.01333 14.4809C6.34333 14.3817 6.53083 14.0325 6.43167 13.7025C6.3325 13.3717 5.98333 13.1842 5.65333 13.2834C4.62167 13.5942 3.82 14.02 3.33833 14.4909C2.915 14.9034 2.70833 15.365 2.70833 15.8334C2.70833 16.4184 3.03917 17.0017 3.71167 17.4884C4.89167 18.3417 7.26167 18.9584 10 18.9584C12.7383 18.9584 15.1083 18.3417 16.2883 17.4884C16.9608 17.0017 17.2917 16.4184 17.2917 15.8334C17.2917 15.365 17.085 14.9034 16.6617 14.4909C16.18 14.02 15.3783 13.5942 14.3467 13.2834C14.0167 13.1842 13.6675 13.3717 13.5683 13.7025C13.4692 14.0325 13.6567 14.3817 13.9867 14.4809Z" fill="#93D9B6"/>
</svg>
