<svg width="28" height="25.76" viewBox="0 0 25 23" fill="none" xmlns="http://www.w3.org/2000/svg">
<path d="M7.36354 22.9834C7.89712 22.9834 8.26735 22.6948 8.9316 22.0953L12.6884 18.6875H19.6793C22.9243 18.6875 24.6666 16.8559 24.6666 13.6035V5.10064C24.6666 1.84823 22.9243 0.0166626 19.6793 0.0166626H5.65392C2.40891 0.0166626 0.666626 1.83713 0.666626 5.10064V13.6035C0.666626 16.867 2.40891 18.6875 5.65392 18.6875H6.17661V21.5736C6.17661 22.4283 6.60129 22.9834 7.36354 22.9834ZM7.81 20.952V17.7329C7.81 17.1335 7.58133 16.9004 6.9933 16.9004H5.65392C3.45428 16.9004 2.4198 15.757 2.4198 13.5924V5.10064C2.4198 2.93606 3.45428 1.80382 5.65392 1.80382H19.6793C21.8681 1.80382 22.9134 2.93606 22.9134 5.10064V13.5924C22.9134 15.757 21.8681 16.9004 19.6793 16.9004H12.6231C12.0133 16.9004 11.7084 16.9892 11.2946 17.4221L7.81 20.952Z" fill="#325745"/>
</svg>
