<svg width="39" height="30" viewBox="0 0 39 30" fill="none" xmlns="http://www.w3.org/2000/svg">
<path d="M9 29.2405L24.3798 29.2405C32.4543 29.2405 39 22.6948 39 14.6202C39 6.54568 32.4543 -2.86333e-05 24.3798 -2.79687e-05L24 -2.79375e-05C15.7157 -2.72556e-05 9 6.7157 9 15L9 29.2405Z" fill="#78CFA4"/>
<path d="M0 29.2405L9 29.2405L9 28.9304L9 22.4177L0 29.2405Z" fill="#78CFA4"/>
<path d="M21.5029 16.9471C21.2629 16.9471 21.0596 16.8638 20.8929 16.6971C20.7263 16.5305 20.6429 16.3305 20.6429 16.0971C20.6429 15.8638 20.7263 15.6605 20.8929 15.4871C21.0596 15.3138 21.2629 15.2271 21.5029 15.2271C21.7429 15.2271 21.9463 15.3138 22.1129 15.4871C22.2796 15.6605 22.3629 15.8638 22.3629 16.0971C22.3629 16.3305 22.2796 16.5305 22.1129 16.6971C21.9463 16.8638 21.7429 16.9471 21.5029 16.9471ZM24.501 16.9471C24.261 16.9471 24.0576 16.8638 23.891 16.6971C23.7243 16.5305 23.641 16.3305 23.641 16.0971C23.641 15.8638 23.7243 15.6605 23.891 15.4871C24.0576 15.3138 24.261 15.2271 24.501 15.2271C24.741 15.2271 24.9443 15.3138 25.111 15.4871C25.2776 15.6605 25.361 15.8638 25.361 16.0971C25.361 16.3305 25.2776 16.5305 25.111 16.6971C24.9443 16.8638 24.741 16.9471 24.501 16.9471ZM27.499 16.9471C27.259 16.9471 27.0557 16.8638 26.889 16.6971C26.7224 16.5305 26.639 16.3305 26.639 16.0971C26.639 15.8638 26.7224 15.6605 26.889 15.4871C27.0557 15.3138 27.259 15.2271 27.499 15.2271C27.739 15.2271 27.9424 15.3138 28.109 15.4871C28.2757 15.6605 28.359 15.8638 28.359 16.0971C28.359 16.3305 28.2757 16.5305 28.109 16.6971C27.9424 16.8638 27.739 16.9471 27.499 16.9471Z" fill="#F2FAF6"/>
</svg>
