<svg width="16" height="16" viewBox="0 0 16 16" fill="none" xmlns="http://www.w3.org/2000/svg">
<path fill-rule="evenodd" clip-rule="evenodd" d="M8.95843 2.84826C8.50956 2.16158 7.49076 2.16158 7.0419 2.84826L4.7756 6.31508L3.04335 5.33364C2.17551 4.84194 1.13206 5.6125 1.36714 6.57147L2.544 11.3722C2.59698 11.5884 2.79326 11.7407 3.01888 11.7407H12.9814C13.2071 11.7407 13.4034 11.5884 13.4564 11.3722L14.6332 6.57147C14.8683 5.6125 13.8248 4.84194 12.957 5.33364L11.2247 6.31508L8.95843 2.84826ZM8.13703 3.3698C8.07296 3.2717 7.92736 3.2717 7.8633 3.3698L5.34546 7.22138C5.20452 7.43698 4.91686 7.50585 4.69127 7.37805L2.55638 6.16849C2.4324 6.09825 2.28333 6.20833 2.31692 6.34532L3.40346 10.7777H12.5969L13.6834 6.34532C13.717 6.20833 13.568 6.09825 13.444 6.16849L11.309 7.37805C11.0834 7.50585 10.7958 7.43698 10.6549 7.22138L8.13703 3.3698Z" fill="#FFC228"/>
<path d="M3.44021 12.7036C3.17039 12.7036 2.95166 12.9192 2.95166 13.1851C2.95166 13.451 3.17039 13.6666 3.44021 13.6666H12.5598C12.8296 13.6666 13.0483 13.451 13.0483 13.1851C13.0483 12.9192 12.8296 12.7036 12.5598 12.7036H3.44021Z" fill="#FFC228"/>
</svg>
